#N canvas 460 40 604 492 12;
#X obj 181 388 outlet~;
#X obj 181 355 vline~;
#X obj 204 116 inlet;
#X obj 228 138 inlet;
#X obj 254 160 inlet;
#X obj 270 183 inlet;
#X obj 289 205 inlet;
#X obj 51 17 inlet;
#X text 94 18 trigger;
#X text 100 116 1 attack time;
#X text 117 140 2 decay time;
#X text 135 162 3 sustain time;
#X text 149 184 4 sustain level;
#X text 170 206 5 release time;
#X obj 421 211 +;
#X obj 453 240 +;
#X obj 421 183 t b f;
#X obj 453 212 t b f;
#X obj 181 268 pack 0 \$1 \$2 \$3 \$4 \$5 100;
#X obj 383 155 f \$1;
#X obj 421 155 f \$2;
#X obj 459 155 f \$3;
#X obj 51 44 t b b;
#X text 344 333 (yes \, it's 1ms off);
#X text 464 436 Brian House 2021;
#X text 463 450 AC ARHA 292;
#X msg 181 309 0 1 \, 1 \$2 0 \, \$5 \$3 \$2 \, 0 \$6 \$7;
#X connect 1 0 0 0;
#X connect 2 0 18 1;
#X connect 2 0 19 1;
#X connect 3 0 18 2;
#X connect 3 0 20 1;
#X connect 4 0 18 3;
#X connect 4 0 21 1;
#X connect 5 0 18 4;
#X connect 6 0 18 5;
#X connect 7 0 22 0;
#X connect 14 0 15 0;
#X connect 15 0 18 6;
#X connect 16 0 14 0;
#X connect 16 1 14 1;
#X connect 17 0 15 0;
#X connect 17 1 15 1;
#X connect 18 0 26 0;
#X connect 19 0 14 0;
#X connect 20 0 16 0;
#X connect 21 0 17 0;
#X connect 22 0 18 0;
#X connect 22 1 21 0;
#X connect 22 1 20 0;
#X connect 22 1 19 0;
#X connect 26 0 1 0;
