#N canvas 193 91 229 328 12;
#X obj 44 14 inlet;
#X obj 26 224 outlet;
#X obj 56 147 + 1;
#X obj 26 180 mod \$1;
#X obj 94 225 outlet;
#X obj 94 140 == 0;
#X obj 94 166 select 1;
#X msg 44 110 0;
#X obj 44 83 t b;
#X obj 44 55 route reset;
#X obj 26 147 f 0;
#X obj 118 82 t b;
#X text 96 269 Brian House 2021;
#X text 95 283 L&C ART 327;
#X connect 0 0 9 0;
#X connect 2 0 10 1;
#X connect 3 0 1 0;
#X connect 3 0 5 0;
#X connect 5 0 6 0;
#X connect 6 0 4 0;
#X connect 7 0 10 1;
#X connect 8 0 7 0;
#X connect 9 0 8 0;
#X connect 9 1 11 0;
#X connect 10 0 2 0;
#X connect 10 0 3 0;
#X connect 11 0 10 0;
