#N canvas 304 85 287 250 12;
#X obj 107 23 inlet;
#X obj 52 143 outlet~;
#X obj 52 23 inlet~;
#X obj 52 89 +~ 1;
#X obj 52 116 /~ 2;
#X obj 52 58 osc~;
#X text 151 194 Brian House 2021;
#X text 150 208 AC ARHA 292;
#X connect 0 0 5 1;
#X connect 2 0 5 0;
#X connect 3 0 4 0;
#X connect 4 0 1 0;
#X connect 5 0 3 0;
