#N canvas 713 106 445 374 12;
#X text 216 285 Brian House 2021;
#X text 215 299 AC ARHA 292;
#X obj 42 38 inlet~;
#X obj 221 21 inlet;
#N canvas 74 151 625 417 vu 0;
#X obj 59 129 env~ 1024;
#X obj 161 111 abs~;
#X obj 161 213 snapshot~;
#X obj 161 256 rmstodb;
#X obj 161 21 inlet~;
#X obj 161 288 - 100;
#X obj 59 287 - 100;
#X obj 59 361 outlet;
#X obj 161 361 outlet;
#X obj 239 89 expr 1000 / $f1;
#X floatatom 239 117 5 0 0 0 - - -;
#X obj 161 146 slop~ 0 0 0 0 1e+09;
#X obj 239 18 inlet;
#X floatatom 239 57 5 0 0 0 - - -;
#X text 359 89 convert to hz;
#X text 282 118 hz;
#X text 284 57 peak decay time in ms;
#X obj 59 171 t f b;
#X obj 256 361 outlet;
#X connect 0 0 17 0;
#X connect 1 0 11 0;
#X connect 2 0 3 0;
#X connect 2 0 18 0;
#X connect 3 0 5 0;
#X connect 4 0 0 0;
#X connect 4 0 1 0;
#X connect 5 0 8 0;
#X connect 6 0 7 0;
#X connect 9 0 10 0;
#X connect 10 0 11 3;
#X connect 11 0 2 0;
#X connect 12 0 13 0;
#X connect 13 0 9 0;
#X connect 17 0 6 0;
#X connect 17 1 2 0;
#X restore 42 75 pd vu;
#X msg 100 57 500;
#X obj 100 30 loadbang;
#X obj 154 262 line~;
#X obj 154 294 outlet~;
#X msg 154 237 \$1 100;
#X floatatom 222 47 5 0 0 0 - - -;
#X obj 222 77 + 100;
#X obj 222 108 dbtorms;
#X msg 135 57 -99;
#X obj 205 133 > 0;
#X obj 166 201 * 0;
#X connect 2 0 4 0;
#X connect 3 0 10 0;
#X connect 4 2 14 0;
#X connect 4 2 15 0;
#X connect 5 0 4 1;
#X connect 6 0 5 0;
#X connect 6 0 13 0;
#X connect 7 0 8 0;
#X connect 9 0 7 0;
#X connect 10 0 11 0;
#X connect 11 0 12 0;
#X connect 12 0 14 1;
#X connect 13 0 10 0;
#X connect 14 0 15 1;
#X connect 15 0 9 0;
