#N canvas 363 92 542 476 12;
#X obj 34 38 input~;
#X obj 384 89 output~;
#X obj 219 102 level~;
#X obj 167 171 *~;
#X obj 164 39 loadbang;
#X msg 164 63 220;
#X floatatom 257 69 5 0 0 0 - - -;
#X obj 165 91 osc~;
#X text 44 293 level~ tracks the amplitude of an audio signal. Unlike
peak~ and pitch~ \, level~ outputs a signal between 0 and 1 \, corresponding
to -99 dB and 0 dB on your input meter. This way \, you can hook level~
up wherever you might use an LFO or envelope \, multiplying it with
an audio signal to create an amplitude envelope;
#X text 408 434 Brian House 2021;
#X text 407 448 AC ARHA 292;
#X connect 0 0 2 0;
#X connect 2 0 3 1;
#X connect 3 0 1 0;
#X connect 3 0 1 1;
#X connect 4 0 5 0;
#X connect 5 0 7 0;
#X connect 6 0 2 1;
#X connect 7 0 3 0;
