#N canvas 0 25 450 300 12;
#X obj 154 64 inlet~;
#X obj 154 182 outlet~;
#X obj 226 64 inlet;
#X obj 154 146 *~ 1;
#X obj 226 92 select 0 1;
#X msg 259 120 0;
#X msg 226 120 1;
#X obj 94 64 inlet~;
#X obj 94 145 *~ 1;
#X obj 94 182 outlet~;
#X connect 0 0 3 0;
#X connect 2 0 4 0;
#X connect 3 0 1 0;
#X connect 4 0 6 0;
#X connect 4 1 5 0;
#X connect 5 0 3 1;
#X connect 5 0 8 1;
#X connect 6 0 3 1;
#X connect 6 0 8 1;
#X connect 7 0 8 0;
#X connect 8 0 9 0;
