#N canvas 141 25 702 452 12;
#X obj 126 124 vsl 20 119 0 1.5 0 0 empty empty empty 0 -9 0 10 -262144
-1 -1 0 0;
#X obj 237 400 dac~;
#X obj 289 335 *~;
#X obj 237 338 *~;
#X obj 147 124 vu 8 120 empty empty -1 -8 0 10 -66577 -262144 0 0;
#X obj 157 124 vu 8 120 empty empty -1 -8 0 10 -66577 -1 1 0;
#X obj 236 302 inlet~;
#X obj 289 302 inlet~;
#N canvas 329 161 625 417 vu 0;
#X obj 59 129 env~ 1024;
#X obj 161 111 abs~;
#X obj 161 213 snapshot~;
#X obj 161 256 rmstodb;
#X obj 161 21 inlet~;
#X obj 161 288 - 100;
#X obj 59 287 - 100;
#X obj 59 361 outlet;
#X obj 161 361 outlet;
#X text 344 307 Check the help file of env~ and slop~ for more details.
, f 31;
#X obj 239 89 expr 1000 / $f1;
#X floatatom 239 117 5 0 0 0 - - -;
#X obj 161 146 slop~ 0 0 0 0 1e+09;
#X obj 239 18 inlet;
#X floatatom 239 57 5 0 0 0 - - -;
#X text 359 89 convert to hz;
#X text 282 118 hz;
#X text 284 57 peak decay time in ms;
#X obj 59 171 t f b;
#X text 345 132 The env~ object is dedicated to RMS analysis. Its output
is in dB (0-100 range \, pd style) but needs to be converted to dBFS
(and we do that by simply subtracting 100)., f 31;
#X text 345 225 The slop~ object is used here for peak detection. We
need to convert the output to dB with rmstodb and also subtract by
100 to convert it to dBFS., f 31;
#X connect 0 0 18 0;
#X connect 1 0 12 0;
#X connect 2 0 3 0;
#X connect 3 0 5 0;
#X connect 4 0 0 0;
#X connect 4 0 1 0;
#X connect 5 0 8 0;
#X connect 6 0 7 0;
#X connect 10 0 11 0;
#X connect 11 0 12 3;
#X connect 12 0 2 0;
#X connect 13 0 14 0;
#X connect 14 0 10 0;
#X connect 18 0 6 0;
#X connect 18 1 2 0;
#X restore 147 57 pd vu;
#N canvas 329 161 625 417 vu 0;
#X obj 59 129 env~ 1024;
#X obj 161 111 abs~;
#X obj 161 213 snapshot~;
#X obj 161 256 rmstodb;
#X obj 161 21 inlet~;
#X obj 161 288 - 100;
#X obj 59 287 - 100;
#X obj 59 361 outlet;
#X obj 161 361 outlet;
#X text 344 307 Check the help file of env~ and slop~ for more details.
, f 31;
#X obj 239 89 expr 1000 / $f1;
#X floatatom 239 117 5 0 0 0 - - -;
#X obj 161 146 slop~ 0 0 0 0 1e+09;
#X obj 239 18 inlet;
#X floatatom 239 57 5 0 0 0 - - -;
#X text 359 89 convert to hz;
#X text 282 118 hz;
#X text 284 57 peak decay time in ms;
#X obj 59 171 t f b;
#X text 345 132 The env~ object is dedicated to RMS analysis. Its output
is in dB (0-100 range \, pd style) but needs to be converted to dBFS
(and we do that by simply subtracting 100)., f 31;
#X text 345 225 The slop~ object is used here for peak detection. We
need to convert the output to dB with rmstodb and also subtract by
100 to convert it to dBFS., f 31;
#X connect 0 0 18 0;
#X connect 1 0 12 0;
#X connect 2 0 3 0;
#X connect 3 0 5 0;
#X connect 4 0 0 0;
#X connect 4 0 1 0;
#X connect 5 0 8 0;
#X connect 6 0 7 0;
#X connect 10 0 11 0;
#X connect 11 0 12 3;
#X connect 12 0 2 0;
#X connect 13 0 14 0;
#X connect 14 0 10 0;
#X connect 18 0 6 0;
#X connect 18 1 2 0;
#X restore 191 57 pd vu;
#X msg 55 34 500;
#X obj 55 8 loadbang;
#X obj 151 250 tgl 15 0 empty empty empty 17 7 0 10 -262144 -1 -1 0
1;
#X obj 340 302 - 1;
#X obj 340 326 abs;
#X obj 237 371 *~ 1;
#X obj 289 371 *~ 1;
#X obj 106 124 vu 8 120 empty empty -1 -8 0 10 -66577 -262144 0 0;
#X obj 116 124 vu 8 120 empty empty -1 -8 0 10 -66577 -262144 0 0;
#N canvas 329 161 625 417 vu 0;
#X obj 59 129 env~ 1024;
#X obj 161 111 abs~;
#X obj 161 213 snapshot~;
#X obj 161 256 rmstodb;
#X obj 161 21 inlet~;
#X obj 161 288 - 100;
#X obj 59 287 - 100;
#X obj 59 361 outlet;
#X obj 161 361 outlet;
#X text 344 307 Check the help file of env~ and slop~ for more details.
, f 31;
#X obj 239 89 expr 1000 / $f1;
#X floatatom 239 117 5 0 0 0 - - -;
#X obj 161 146 slop~ 0 0 0 0 1e+09;
#X obj 239 18 inlet;
#X floatatom 239 57 5 0 0 0 - - -;
#X text 359 89 convert to hz;
#X text 282 118 hz;
#X text 284 57 peak decay time in ms;
#X obj 59 171 t f b;
#X text 345 132 The env~ object is dedicated to RMS analysis. Its output
is in dB (0-100 range \, pd style) but needs to be converted to dBFS
(and we do that by simply subtracting 100)., f 31;
#X text 345 225 The slop~ object is used here for peak detection. We
need to convert the output to dB with rmstodb and also subtract by
100 to convert it to dBFS., f 31;
#X connect 0 0 18 0;
#X connect 1 0 12 0;
#X connect 2 0 3 0;
#X connect 3 0 5 0;
#X connect 4 0 0 0;
#X connect 4 0 1 0;
#X connect 5 0 8 0;
#X connect 6 0 7 0;
#X connect 10 0 11 0;
#X connect 11 0 12 3;
#X connect 12 0 2 0;
#X connect 13 0 14 0;
#X connect 14 0 10 0;
#X connect 18 0 6 0;
#X connect 18 1 2 0;
#X restore 101 57 pd vu;
#N canvas 329 161 625 417 vu 0;
#X obj 59 129 env~ 1024;
#X obj 161 111 abs~;
#X obj 161 213 snapshot~;
#X obj 161 256 rmstodb;
#X obj 161 21 inlet~;
#X obj 161 288 - 100;
#X obj 59 287 - 100;
#X obj 59 361 outlet;
#X obj 161 361 outlet;
#X text 344 307 Check the help file of env~ and slop~ for more details.
, f 31;
#X obj 239 89 expr 1000 / $f1;
#X floatatom 239 117 5 0 0 0 - - -;
#X obj 161 146 slop~ 0 0 0 0 1e+09;
#X obj 239 18 inlet;
#X floatatom 239 57 5 0 0 0 - - -;
#X text 359 89 convert to hz;
#X text 282 118 hz;
#X text 284 57 peak decay time in ms;
#X obj 59 171 t f b;
#X text 345 132 The env~ object is dedicated to RMS analysis. Its output
is in dB (0-100 range \, pd style) but needs to be converted to dBFS
(and we do that by simply subtracting 100)., f 31;
#X text 345 225 The slop~ object is used here for peak detection. We
need to convert the output to dB with rmstodb and also subtract by
100 to convert it to dBFS., f 31;
#X connect 0 0 18 0;
#X connect 1 0 12 0;
#X connect 2 0 3 0;
#X connect 3 0 5 0;
#X connect 4 0 0 0;
#X connect 4 0 1 0;
#X connect 5 0 8 0;
#X connect 6 0 7 0;
#X connect 10 0 11 0;
#X connect 11 0 12 3;
#X connect 12 0 2 0;
#X connect 13 0 14 0;
#X connect 14 0 10 0;
#X connect 18 0 6 0;
#X connect 18 1 2 0;
#X restore 55 57 pd vu;
#X obj 403 397 writesf~ 2;
#X msg 442 280 start;
#X msg 403 280 stop;
#X obj 408 220 select 0 1;
#X obj 105 250 tgl 15 0 empty empty empty 17 7 0 10 -262144 -258113
-1 0 1;
#X obj 447 250 t b b;
#X obj 489 280 random 90000;
#X obj 489 304 + 10000;
#X text 143 262 mute;
#X text 100 262 rec;
#X text 123 245 vol;
#X msg 489 328 open -bytes 3 ../\$1.wav;
#X text 531 368 Brian House 2021;
#X text 530 382 AC ARHA 292;
#X connect 0 0 2 1;
#X connect 0 0 3 1;
#X connect 2 0 16 0;
#X connect 3 0 15 0;
#X connect 6 0 3 0;
#X connect 6 0 20 0;
#X connect 7 0 2 0;
#X connect 7 0 19 0;
#X connect 8 0 4 0;
#X connect 8 1 4 1;
#X connect 9 0 5 0;
#X connect 9 1 5 1;
#X connect 10 0 9 1;
#X connect 10 0 8 1;
#X connect 10 0 19 1;
#X connect 10 0 20 1;
#X connect 11 0 10 0;
#X connect 12 0 13 0;
#X connect 13 0 14 0;
#X connect 14 0 15 1;
#X connect 14 0 16 1;
#X connect 15 0 1 0;
#X connect 15 0 8 0;
#X connect 15 0 21 0;
#X connect 16 0 1 1;
#X connect 16 0 9 0;
#X connect 16 0 21 1;
#X connect 19 0 18 0;
#X connect 19 1 18 1;
#X connect 20 0 17 0;
#X connect 20 1 17 1;
#X connect 22 0 21 0;
#X connect 23 0 21 0;
#X connect 24 0 23 0;
#X connect 24 1 26 0;
#X connect 25 0 24 0;
#X connect 26 0 22 0;
#X connect 26 1 27 0;
#X connect 27 0 28 0;
#X connect 28 0 32 0;
#X connect 32 0 21 0;
#X coords 0 -1 1 1 95 180 1 100 100;
