#N canvas 48 76 903 442 12;
#X obj 168 207 output~;
#X obj 168 87 osc~ 220;
#X obj 197 142 pan~;
#X obj 238 87 osc~ 1;
#X text 239 133 <-- panning signal;
#X text 12 132 original mono signal -->;
#X text 80 179 left channel;
#X text 259 179 right channel;
#X obj 572 207 output~;
#X obj 536 84 osc~ 220;
#X obj 601 142 pan~;
#X text 416 132 original mono signal -->;
#X text 484 179 left channel;
#X text 663 179 right channel;
#X floatatom 624 110 5 0 0 0 - - -;
#X obj 617 84 hsl 128 15 -1 1 0 0 empty empty empty -2 -8 0 10 -262144
-1 -1 0 1;
#X text 638 135 <-- panning control;
#X text 86 29 pan a signal with another signal (LFO);
#X text 518 29 ...or with a control value between -1 and 1;
#X obj 614 59 loadbang;
#X text 771 379 Brian House 2021;
#X text 770 393 AC ARHA 292;
#X connect 1 0 2 0;
#X connect 2 0 0 0;
#X connect 2 1 0 1;
#X connect 3 0 2 1;
#X connect 9 0 10 0;
#X connect 10 0 8 0;
#X connect 10 1 8 1;
#X connect 14 0 10 1;
#X connect 15 0 14 0;
#X connect 19 0 15 0;
