#N canvas 498 77 394 354 12;
#X obj 99 212 *~;
#X obj 181 212 *~;
#X obj 37 33 inlet~;
#X obj 100 266 outlet~;
#X obj 181 266 outlet~;
#X obj 199 139 +~ 0.75;
#X obj 117 106 rescale~ -1 1 0 0.25;
#X obj 117 75 clip~ -1 1;
#X obj 117 173 cos~;
#X obj 199 173 cos~;
#X obj 117 33 inlet~;
#X text 260 301 Brian House 2021;
#X text 259 315 L&C ART 327;
#X connect 0 0 3 0;
#X connect 1 0 4 0;
#X connect 2 0 0 0;
#X connect 2 0 1 0;
#X connect 5 0 9 0;
#X connect 6 0 5 0;
#X connect 6 0 8 0;
#X connect 7 0 6 0;
#X connect 8 0 0 1;
#X connect 9 0 1 1;
#X connect 10 0 7 0;
