#N canvas 680 25 276 359 12;
#X obj 36 24 inlet~;
#X text 120 257 Brian House 2021;
#X text 119 271 AC ARHA 292;
#X obj 35 220 bonk~;
#X msg 42 188 thresh 0 \$1;
#X msg 52 129 40;
#X obj 53 102 loadbang;
#X obj 36 250 t b;
#X obj 36 282 outlet;
#X obj 192 26 inlet;
#X connect 0 0 3 0;
#X connect 3 0 7 0;
#X connect 4 0 3 0;
#X connect 5 0 4 0;
#X connect 6 0 5 0;
#X connect 7 0 8 0;
#X connect 9 0 4 0;
