#N canvas 234 58 607 410 12;
#X obj 136 120 hradio 15 1 0 8 empty empty empty 0 -8 0 10 -262144
-262144 -1 7;
#X obj 143 105 hradio 15 1 0 2 empty empty empty 0 -8 0 10 -262144
-262144 -1 1;
#X obj 187 105 hradio 15 1 0 3 empty empty empty 0 -8 0 10 -262144
-262144 -1 2;
#X obj 198 182 select 0 1 2 3 4 5 6 7;
#X obj 360 182 select 0 1;
#X obj 439 181 select 0 1 2;
#X msg 198 214 60;
#X msg 360 209 61;
#X msg 213 223 62;
#X msg 392 209 63;
#X msg 235 214 64;
#X msg 245 224 65;
#X msg 270 214 67;
#X msg 439 210 66;
#X msg 466 210 68;
#X msg 493 210 70;
#X msg 280 224 69;
#X msg 303 214 71;
#X msg 326 224 72;
#X floatatom 184 279 5 0 0 0 - - -;
#X obj 184 340 mtof;
#X obj 184 368 outlet;
#X obj 259 120 nbx 3 14 -1e+37 1e+37 0 0 empty empty empty 0 -8 0 10
-262144 -1 -1 0 256;
#X text 256 104 +8ave;
#X obj 184 313 + 0;
#X obj 246 280 * 12;
#X obj 246 304 t b f;
#X text 468 349 Brian House 2021;
#X text 467 363 L&C ART 327;
#X obj 249 368 outlet;
#X connect 0 0 3 0;
#X connect 1 0 4 0;
#X connect 2 0 5 0;
#X connect 3 0 6 0;
#X connect 3 1 8 0;
#X connect 3 2 10 0;
#X connect 3 3 11 0;
#X connect 3 4 12 0;
#X connect 3 5 16 0;
#X connect 3 6 17 0;
#X connect 3 7 18 0;
#X connect 4 0 7 0;
#X connect 4 1 9 0;
#X connect 5 0 13 0;
#X connect 5 1 14 0;
#X connect 5 2 15 0;
#X connect 6 0 19 0;
#X connect 7 0 19 0;
#X connect 8 0 19 0;
#X connect 9 0 19 0;
#X connect 10 0 19 0;
#X connect 11 0 19 0;
#X connect 12 0 19 0;
#X connect 13 0 19 0;
#X connect 14 0 19 0;
#X connect 15 0 19 0;
#X connect 16 0 19 0;
#X connect 17 0 19 0;
#X connect 18 0 19 0;
#X connect 19 0 24 0;
#X connect 20 0 21 0;
#X connect 22 0 25 0;
#X connect 24 0 20 0;
#X connect 24 0 29 0;
#X connect 25 0 26 0;
#X connect 26 0 24 0;
#X connect 26 1 24 1;
#X coords 0 -1 1 1 200 40 1 100 100;
