#N canvas 153 25 1127 701 12;
#X obj 789 407 phasor~;
#X obj 346 438 *~;
#X obj 346 552 outlet~;
#X obj 103 185 hsl 195 8 0 1 0 0 empty empty empty -2 -8 0 10 -262144
-1 -1 0 1;
#X obj 346 523 hip~ 5;
#X text 634 33 rate;
#X obj 346 409 +~;
#X obj 346 382 *~;
#X obj 335 161 sig~;
#X obj 376 161 sig~;
#X obj 335 187 -~;
#X obj 389 267 *~;
#X obj 406 552 outlet~;
#X obj 687 34 inlet;
#X obj 813 34 inlet;
#X obj 346 466 tabread4~ \$0-clip;
#X text 730 34 loop start;
#X text 856 34 loop stop;
#X obj 103 25 loadbang;
#X msg 103 52 1;
#N canvas 0 22 450 278 (subpatch) 0;
#X array \$0-clip 147136 float 2;
#X coords 0 1 147136 -1 200 50 2 0 0;
#X restore 100 135 graph;
#X obj 103 127 hsl 195 8 0 1 0 0 empty empty empty -2 -8 0 10 -262144
-1 -1 19400 0;
#X obj 103 119 hsl 195 8 0 1 0 0 empty empty empty -2 -8 0 10 -262144
-1 -1 0 0;
#X obj 320 37 inlet;
#X text 367 36 messages;
#X obj 863 594 +~;
#X obj 851 564 *~;
#X obj 899 489 tgl 15 0 empty empty empty 17 7 0 10 -262144 -1 -1 0
1;
#X obj 881 565 *~;
#X obj 899 512 * -1;
#X obj 899 539 + 1;
#X obj 791 294 *~;
#X msg 836 348 0, f 2;
#X obj 819 212 t b;
#X msg 854 268 0;
#X obj 389 294 *~ 1;
#X obj 585 35 inlet;
#X obj 914 437 loadbang;
#X msg 914 463 0;
#X obj 854 245 t b;
#X msg 791 271 1;
#X text 939 633 Brian House 2021;
#X text 938 647 AC ARHA 292;
#X obj 874 378 saw~;
#X obj 263 448 unsig~ 50;
#X obj 874 347 *~ 1;
#X obj 981 408 unsig~ 10;
#X obj 874 407 expr~ $v1 >= 0;
#X msg 910 347 0.5;
#X obj 874 316 *~ 0.5;
#X obj 771 212 t b;
#X obj 376 135 min;
#X obj 335 135 max;
#X obj 376 109 t b f;
#X obj 335 109 t b f;
#X obj 876 435 *~;
#X obj 280 103 tgl 15 0 empty empty empty 17 7 0 10 -262144 -1 -1 0
1;
#X obj 515 72 select 1 0;
#X msg 592 101 stop;
#X obj 517 162 timer;
#X obj 515 101 clip~ -1 1;
#X obj 515 130 tabwrite~ \$0-clip;
#X msg 796 108 play;
#X msg 876 108 loop \$1;
#X obj 876 87 tgl 15 0 empty empty empty 17 7 0 10 -262144 -1 -1 0
1;
#X obj 517 191 * 44.1;
#X msg 61 262 \; \$1 const 0;
#X obj 61 234 symbol \$0-clip;
#X obj 61 209 t b;
#X obj 517 220 array size \$0-clip;
#X obj 335 213 expr~ 1 / $v1;
#X obj 404 191 expr 1000 / $f1;
#X obj 238 38 inlet~;
#X obj 771 169 route loop play stop record;
#X msg 946 229 1;
#X msg 836 108 stop;
#X text 230 100 record;
#X msg 938 108 record \$1;
#X obj 938 86 tgl 15 0 empty empty empty 17 7 0 10 -262144 -1 -1 0
1;
#X obj 913 202 select 0 1;
#X msg 569 191 441000;
#X connect 0 0 26 0;
#X connect 1 0 15 0;
#X connect 4 0 2 0;
#X connect 6 0 1 0;
#X connect 6 0 44 0;
#X connect 7 0 6 0;
#X connect 8 0 10 0;
#X connect 9 0 6 1;
#X connect 9 0 10 1;
#X connect 10 0 7 1;
#X connect 10 0 70 0;
#X connect 11 0 35 0;
#X connect 13 0 22 0;
#X connect 14 0 21 0;
#X connect 15 0 4 0;
#X connect 18 0 19 0;
#X connect 19 0 21 0;
#X connect 21 0 52 0;
#X connect 21 0 51 0;
#X connect 22 0 54 0;
#X connect 22 0 53 0;
#X connect 23 0 73 0;
#X connect 25 0 7 0;
#X connect 25 0 12 0;
#X connect 26 0 25 0;
#X connect 27 0 26 1;
#X connect 27 0 29 0;
#X connect 28 0 25 1;
#X connect 29 0 30 0;
#X connect 30 0 28 1;
#X connect 31 0 0 0;
#X connect 31 0 49 0;
#X connect 32 0 0 1;
#X connect 33 0 32 0;
#X connect 33 0 40 0;
#X connect 33 0 48 0;
#X connect 34 0 31 1;
#X connect 35 0 31 0;
#X connect 36 0 35 1;
#X connect 37 0 38 0;
#X connect 38 0 27 0;
#X connect 39 0 34 0;
#X connect 40 0 31 1;
#X connect 43 0 47 0;
#X connect 43 0 55 1;
#X connect 44 0 3 0;
#X connect 45 0 43 0;
#X connect 46 0 45 1;
#X connect 47 0 46 0;
#X connect 47 0 55 0;
#X connect 48 0 43 1;
#X connect 49 0 45 0;
#X connect 50 0 32 0;
#X connect 50 0 48 0;
#X connect 51 0 9 0;
#X connect 52 0 8 0;
#X connect 53 0 51 0;
#X connect 53 1 51 1;
#X connect 54 0 52 0;
#X connect 54 1 52 1;
#X connect 55 0 28 0;
#X connect 56 0 57 0;
#X connect 57 0 59 0;
#X connect 57 0 61 0;
#X connect 57 0 68 0;
#X connect 57 1 58 0;
#X connect 57 1 59 1;
#X connect 58 0 61 0;
#X connect 59 0 65 0;
#X connect 59 0 71 0;
#X connect 60 0 61 0;
#X connect 62 0 73 0;
#X connect 63 0 73 0;
#X connect 64 0 63 0;
#X connect 65 0 1 1;
#X connect 65 0 69 0;
#X connect 67 0 66 0;
#X connect 68 0 67 0;
#X connect 68 0 80 0;
#X connect 70 0 11 0;
#X connect 71 0 11 1;
#X connect 72 0 60 0;
#X connect 73 0 27 0;
#X connect 73 0 50 0;
#X connect 73 1 33 0;
#X connect 73 2 39 0;
#X connect 73 3 79 0;
#X connect 74 0 56 0;
#X connect 75 0 73 0;
#X connect 77 0 73 0;
#X connect 78 0 77 0;
#X connect 79 0 56 0;
#X connect 79 1 74 0;
#X connect 80 0 69 0;
#X coords 0 -1 1 1 200 93 1 100 100;
