#N canvas 99 25 1126 701 12;
#X obj 473 20 bng 15 250 50 0 empty empty empty 17 7 0 10 -262144 -1
-1;
#X obj 473 42 openpanel;
#X obj 473 189 soundfiler;
#X obj 687 403 phasor~;
#X obj 383 438 *~;
#X obj 383 552 outlet~;
#X obj 103 185 hsl 195 8 0 1 0 0 empty empty empty -2 -8 0 10 -262144
-1 -1 0 1;
#X obj 383 523 hip~ 5;
#X text 634 33 rate;
#X obj 383 409 +~;
#X obj 383 382 *~;
#X obj 372 161 sig~;
#X obj 413 161 sig~;
#X obj 372 187 -~;
#X obj 372 213 expr~ 1 / $v1;
#X obj 426 267 *~;
#X obj 443 552 outlet~;
#X obj 687 34 inlet;
#X obj 813 34 inlet;
#X obj 383 466 tabread4~ \$0-clip;
#X text 730 34 loop start;
#X text 856 34 loop stop;
#X obj 103 25 loadbang;
#X msg 103 52 1;
#N canvas 0 22 450 278 (subpatch) 0;
#X array \$0-clip 312806 float 2;
#X coords 0 1 312806 -1 200 50 2 0 0;
#X restore 100 135 graph;
#X obj 526 103 symbol \$0-clip;
#X msg 473 165 read -resize \$1 \$2;
#X obj 473 132 pack s s;
#X obj 526 76 loadbang;
#X obj 103 127 hsl 195 8 0 1 0 0 empty empty empty -2 -8 0 10 -262144
-1 -1 19400 0;
#X obj 103 119 hsl 195 8 0 1 0 0 empty empty empty -2 -8 0 10 -262144
-1 -1 0 0;
#X obj 320 37 inlet;
#X text 367 36 messages;
#X obj 761 590 +~;
#X obj 749 560 *~;
#X obj 797 485 tgl 15 0 empty empty empty 17 7 0 10 -262144 -1 -1 0
1;
#X obj 779 561 *~;
#X obj 797 508 * -1;
#X obj 797 535 + 1;
#X obj 689 290 *~;
#X msg 734 344 0, f 2;
#X obj 717 208 t b;
#X msg 752 264 0;
#X obj 426 294 *~ 1;
#X obj 585 35 inlet;
#X obj 812 433 loadbang;
#X msg 812 459 0;
#X obj 669 165 route loop play stop open;
#X obj 752 241 t b;
#X msg 689 267 1;
#X text 939 633 Brian House 2021;
#X text 938 647 L&C ART 327;
#X msg 841 214 ../\$1;
#X obj 841 189 symbol;
#X obj 480 215 pack 0 0;
#X obj 479 239 expr $f2 / $f1;
#X msg 550 189 \$1;
#X obj 772 374 saw~;
#X obj 300 448 unsig~ 50;
#X obj 772 343 *~ 1;
#X obj 879 404 unsig~ 10;
#X msg 157 319 pixies.wav;
#X msg 156 291 play;
#X msg 198 291 loop \$1;
#X obj 197 266 tgl 15 0 empty empty empty 17 7 0 10 -262144 -1 -1 0
1;
#X obj 772 403 expr~ $v1 >= 0;
#X msg 808 343 0.5;
#X obj 772 312 *~ 0.5;
#X obj 669 208 t b;
#X obj 413 135 min;
#X obj 372 135 max;
#X obj 413 109 t b f;
#X obj 372 109 t b f;
#X obj 774 431 *~;
#X floatatom 259 291 5 0 0 0 - - -;
#X text 852 302 non-loop can't go backwards!;
#X text 168 246 test;
#X text 849 322 need to add 1 to phase if f is -;
#X connect 0 0 1 0;
#X connect 1 0 27 0;
#X connect 2 0 4 1;
#X connect 2 0 54 0;
#X connect 2 1 56 0;
#X connect 3 0 34 0;
#X connect 4 0 19 0;
#X connect 7 0 5 0;
#X connect 9 0 4 0;
#X connect 9 0 58 0;
#X connect 10 0 9 0;
#X connect 11 0 13 0;
#X connect 12 0 9 1;
#X connect 12 0 13 1;
#X connect 13 0 10 1;
#X connect 13 0 14 0;
#X connect 14 0 15 0;
#X connect 15 0 43 0;
#X connect 17 0 30 0;
#X connect 18 0 29 0;
#X connect 19 0 7 0;
#X connect 22 0 23 0;
#X connect 23 0 29 0;
#X connect 25 0 27 1;
#X connect 26 0 2 0;
#X connect 27 0 26 0;
#X connect 28 0 25 0;
#X connect 29 0 70 0;
#X connect 29 0 69 0;
#X connect 30 0 72 0;
#X connect 30 0 71 0;
#X connect 31 0 47 0;
#X connect 33 0 10 0;
#X connect 33 0 16 0;
#X connect 34 0 33 0;
#X connect 35 0 34 1;
#X connect 35 0 37 0;
#X connect 36 0 33 1;
#X connect 37 0 38 0;
#X connect 38 0 36 1;
#X connect 39 0 3 0;
#X connect 39 0 67 0;
#X connect 40 0 3 1;
#X connect 41 0 40 0;
#X connect 41 0 49 0;
#X connect 41 0 66 0;
#X connect 42 0 39 1;
#X connect 43 0 39 0;
#X connect 44 0 43 1;
#X connect 45 0 46 0;
#X connect 46 0 35 0;
#X connect 47 0 35 0;
#X connect 47 0 68 0;
#X connect 47 1 41 0;
#X connect 47 2 48 0;
#X connect 47 3 0 0;
#X connect 47 4 53 0;
#X connect 48 0 42 0;
#X connect 49 0 39 1;
#X connect 52 0 27 0;
#X connect 53 0 52 0;
#X connect 54 0 55 0;
#X connect 55 0 15 1;
#X connect 56 0 54 1;
#X connect 57 0 65 0;
#X connect 57 0 73 1;
#X connect 58 0 6 0;
#X connect 59 0 57 0;
#X connect 60 0 59 1;
#X connect 61 0 53 0;
#X connect 62 0 47 0;
#X connect 63 0 47 0;
#X connect 64 0 63 0;
#X connect 65 0 60 0;
#X connect 65 0 73 0;
#X connect 66 0 57 1;
#X connect 67 0 59 0;
#X connect 68 0 40 0;
#X connect 68 0 66 0;
#X connect 69 0 12 0;
#X connect 70 0 11 0;
#X connect 71 0 69 0;
#X connect 71 1 69 1;
#X connect 72 0 70 0;
#X connect 72 1 70 1;
#X connect 73 0 36 0;
#X connect 74 0 43 1;
#X coords 0 -1 1 1 200 93 1 100 100;
