#N canvas 616 123 507 326 12;
#X obj 338 25 loadbang;
#X msg 338 49 1;
#X obj 286 25 inlet~;
#N canvas 0 22 450 278 (subpatch) 0;
#X array \$0-waveform 500 float 0;
#X coords 0 1 499 -1 200 140 1 0 0;
#X restore 100 120 graph;
#X obj 338 97 tabwrite~ \$0-waveform;
#X obj 101 101 cnv 15 198 18 empty empty empty 20 12 0 14 -262144 -66577
0;
#X text 100 100 scope~;
#X text 100 119 1;
#X text 100 243 -1;
#X text 100 179 0;
#X text 377 270 Brian House 2021;
#X text 376 284 L&C ART 327;
#X obj 338 73 metro 100;
#X connect 0 0 1 0;
#X connect 1 0 12 0;
#X connect 2 0 4 0;
#X connect 12 0 4 0;
#X coords 0 -1 1 1 200 160 1 100 100;
