#N canvas -255 -567 288 300 12;
#X text 143 233 Brian House 2021;
#X text 142 247 AC ARHA 292;
#X obj 49 102 line;
#X msg 49 77 \$1 50;
#X obj 49 48 inlet;
#X obj 49 182 outlet;
#X obj 49 155 *;
#X obj 67 128 > 0.0001;
#X connect 2 0 6 0;
#X connect 2 0 7 0;
#X connect 3 0 2 0;
#X connect 4 0 3 0;
#X connect 6 0 5 0;
#X connect 7 0 6 1;
