#N canvas 544 84 243 272 12;
#X obj 36 110 expr~ $v1 > 0.5;
#X obj 86 25 inlet;
#X obj 36 170 outlet~;
#X obj 36 140 -~ 0.5;
#X obj 36 81 phasor~;
#X obj 36 25 inlet~;
#X text 107 213 Brian House 2021;
#X text 106 227 L&C ART 327;
#X connect 0 0 3 0;
#X connect 1 0 4 1;
#X connect 3 0 2 0;
#X connect 4 0 0 0;
#X connect 5 0 4 0;
