#N canvas 290 224 455 386 12;
#X obj 101 119 scope~;
#X text 124 59 v reset phase;
#X text 13 59 change freq v;
#X text 64 16 Create a square wave oscillator;
#X obj 101 79 sqr~;
#X msg 22 154 440;
#X obj 22 129 loadbang;
#X text 310 312 Brian House 2021;
#X text 309 326 L&C ART 327;
#X connect 4 0 0 0;
#X connect 5 0 4 0;
#X connect 6 0 5 0;
