#N canvas 608 288 411 258 12;
#X obj 125 20 inlet~;
#X obj 126 148 snapshot~;
#X obj 126 173 outlet;
#X obj 177 20 loadbang;
#X obj 177 44 t b b;
#X obj 209 70 f \$1;
#X obj 209 94 sel 0;
#X obj 177 120 metro 100;
#X text 273 204 Brian House 2021;
#X text 272 218 AC ARHA 292;
#X connect 0 0 1 0;
#X connect 1 0 2 0;
#X connect 3 0 4 0;
#X connect 4 0 7 0;
#X connect 4 1 5 0;
#X connect 5 0 6 0;
#X connect 6 1 7 1;
#X connect 7 0 1 0;
